<svg width="72" height="95" viewBox="0 0 72 95" fill="none" xmlns="http://www.w3.org/2000/svg">
<path d="M36 22.6225C45.5478 22.6225 54.7045 26.4352 61.4558 33.2219C68.2072 40.0086 72 49.2134 72 58.8113C72 68.4091 68.2072 77.6139 61.4558 84.4006C54.7045 91.1873 45.5478 95 36 95C26.4522 95 17.2955 91.1873 10.5442 84.4006C3.79285 77.6139 0 68.4091 0 58.8113C0 49.2134 3.79285 40.0086 10.5442 33.2219C17.2955 26.4352 26.4522 22.6225 36 22.6225V22.6225ZM36 31.6697C28.8392 31.6697 21.9716 34.5292 16.9081 39.6193C11.8446 44.7093 9 51.6129 9 58.8113C9 66.0096 11.8446 72.9132 16.9081 78.0032C21.9716 83.0933 28.8392 85.9528 36 85.9528C43.1608 85.9528 50.0284 83.0933 55.0919 78.0032C60.1554 72.9132 63 66.0096 63 58.8113C63 51.6129 60.1554 44.7093 55.0919 39.6193C50.0284 34.5292 43.1608 31.6697 36 31.6697ZM36 38.4551L41.9535 50.5783L55.26 52.5235L45.63 61.9551L47.9025 75.2817L36 68.9893L24.0975 75.2771L26.37 61.9551L16.74 52.5189L30.0465 50.5738L36 38.4551ZM63 0.00452381V13.5753L56.8665 18.7232C51.7767 16.0388 46.2198 14.3662 40.5 13.797V0.00452381H63ZM31.5 0V13.797C25.7821 14.3653 20.2267 16.0364 15.138 18.7186L9 13.5753V0.00452381L31.5 0Z" fill="#6DDB8C"/>
</svg>
