<svg width="119" height="157" viewBox="0 0 119 157" fill="none" xmlns="http://www.w3.org/2000/svg">
<path d="M59.3954 37.3242C75.148 37.3242 90.2555 43.6147 101.394 54.812C112.533 66.0092 118.791 81.1958 118.791 97.0311C118.791 112.866 112.533 128.053 101.394 139.25C90.2555 150.447 75.148 156.738 59.3954 156.738C43.6428 156.738 28.5353 150.447 17.3965 139.25C6.25771 128.053 0 112.866 0 97.0311C0 81.1958 6.25771 66.0092 17.3965 54.812C28.5353 43.6147 43.6428 37.3242 59.3954 37.3242ZM59.3954 52.2509C47.5809 52.2509 36.2503 56.9688 27.8962 65.3667C19.5421 73.7646 14.8489 85.1546 14.8489 97.0311C14.8489 108.907 19.5421 120.297 27.8962 128.695C36.2503 137.093 47.5809 141.811 59.3954 141.811C71.2099 141.811 82.5405 137.093 90.8946 128.695C99.2487 120.297 103.942 108.907 103.942 97.0311C103.942 85.1546 99.2487 73.7646 90.8946 65.3667C82.5405 56.9688 71.2099 52.2509 59.3954 52.2509ZM59.3954 63.446L69.2179 83.4478L91.1719 86.657L75.2837 102.218L79.033 124.205L59.3954 113.824L39.7578 124.198L43.5071 102.218L27.6189 86.6495L49.5729 83.4403L59.3954 63.446ZM103.942 0.0074637V22.3975L93.8225 30.8908C85.425 26.4619 76.2568 23.7024 66.8198 22.7632V0.0074637H103.942ZM51.971 0V22.7632C42.5371 23.701 33.3715 26.458 24.9758 30.8834L14.8489 22.3975V0.0074637L51.971 0Z" fill="#2FDF84"/>
</svg>
