<svg width="276" height="80" viewBox="0 0 276 80" fill="none" xmlns="http://www.w3.org/2000/svg">
<path d="M42 26.2513C47.3043 26.2513 52.3914 28.3584 56.1421 32.1091C59.8929 35.8599 62 40.947 62 46.2513C62 51.5556 59.8929 56.6427 56.1421 60.3934C52.3914 64.1441 47.3043 66.2513 42 66.2513C36.6957 66.2513 31.6086 64.1441 27.8579 60.3934C24.1071 56.6427 22 51.5556 22 46.2513C22 40.947 24.1071 35.8599 27.8579 32.1091C31.6086 28.3584 36.6957 26.2513 42 26.2513V26.2513ZM42 31.2513C38.0218 31.2513 34.2064 32.8316 31.3934 35.6447C28.5804 38.4577 27 42.273 27 46.2513C27 50.2295 28.5804 54.0448 31.3934 56.8579C34.2064 59.6709 38.0218 61.2513 42 61.2513C45.9782 61.2513 49.7936 59.6709 52.6066 56.8579C55.4196 54.0448 57 50.2295 57 46.2513C57 42.273 55.4196 38.4577 52.6066 35.6447C49.7936 32.8316 45.9782 31.2513 42 31.2513ZM42 35.0013L45.3075 41.7013L52.7 42.7763L47.35 47.9888L48.6125 55.3538L42 51.8763L35.3875 55.3513L36.65 47.9888L31.3 42.7738L38.6925 41.6988L42 35.0013ZM57 13.7513V21.2513L53.5925 24.0963C50.7649 22.6127 47.6777 21.6884 44.5 21.3738V13.7513H57ZM39.5 13.7488V21.3738C36.3234 21.6879 33.2371 22.6114 30.41 24.0938L27 21.2513V13.7513L39.5 13.7488Z" fill="#6DDB8C"/>
<path d="M82.072 23.64V57H76.6V23.64H82.072ZM101.16 30.12C103.24 30.12 105.096 30.552 106.728 31.416C108.392 32.28 109.688 33.56 110.616 35.256C111.544 36.952 112.008 39 112.008 41.4V57H106.584V42.216C106.584 39.848 105.992 38.04 104.808 36.792C103.624 35.512 102.008 34.872 99.9602 34.872C97.9122 34.872 96.2802 35.512 95.0642 36.792C93.8802 38.04 93.2882 39.848 93.2882 42.216V57H87.8162V30.552H93.2882V33.576C94.1842 32.488 95.3203 31.64 96.6963 31.032C98.1043 30.424 99.5923 30.12 101.16 30.12ZM127.148 57.432C125.068 57.432 123.196 57.064 121.532 56.328C119.9 55.56 118.604 54.536 117.644 53.256C116.684 51.944 116.172 50.488 116.108 48.888H121.772C121.868 50.008 122.396 50.952 123.356 51.72C124.348 52.456 125.58 52.824 127.052 52.824C128.588 52.824 129.772 52.536 130.604 51.96C131.468 51.352 131.9 50.584 131.9 49.656C131.9 48.664 131.42 47.928 130.46 47.448C129.532 46.968 128.044 46.44 125.996 45.864C124.012 45.32 122.396 44.792 121.148 44.28C119.9 43.768 118.812 42.984 117.884 41.928C116.988 40.872 116.54 39.48 116.54 37.752C116.54 36.344 116.956 35.064 117.788 33.912C118.62 32.728 119.804 31.8 121.34 31.128C122.908 30.456 124.7 30.12 126.716 30.12C129.724 30.12 132.14 30.888 133.964 32.424C135.82 33.928 136.812 35.992 136.94 38.616H131.468C131.372 37.432 130.892 36.488 130.028 35.784C129.164 35.08 127.996 34.728 126.524 34.728C125.084 34.728 123.98 35 123.212 35.544C122.444 36.088 122.06 36.808 122.06 37.704C122.06 38.408 122.316 39 122.828 39.48C123.34 39.96 123.964 40.344 124.7 40.632C125.436 40.888 126.524 41.224 127.964 41.64C129.884 42.152 131.452 42.68 132.668 43.224C133.916 43.736 134.988 44.504 135.884 45.528C136.78 46.552 137.244 47.912 137.276 49.608C137.276 51.112 136.86 52.456 136.028 53.64C135.196 54.824 134.012 55.752 132.476 56.424C130.972 57.096 129.196 57.432 127.148 57.432ZM144.533 27.048C143.541 27.048 142.709 26.712 142.037 26.04C141.365 25.368 141.029 24.536 141.029 23.544C141.029 22.552 141.365 21.72 142.037 21.048C142.709 20.376 143.541 20.04 144.533 20.04C145.493 20.04 146.309 20.376 146.981 21.048C147.653 21.72 147.989 22.552 147.989 23.544C147.989 24.536 147.653 25.368 146.981 26.04C146.309 26.712 145.493 27.048 144.533 27.048ZM147.221 30.552V57H141.749V30.552H147.221ZM163.621 30.12C165.669 30.12 167.477 30.536 169.045 31.368C170.645 32.168 171.893 33.176 172.789 34.392V30.552H178.309V57.432C178.309 59.864 177.797 62.024 176.773 63.912C175.749 65.832 174.261 67.336 172.309 68.424C170.389 69.512 168.085 70.056 165.397 70.056C161.813 70.056 158.837 69.208 156.469 67.512C154.101 65.848 152.757 63.576 152.437 60.696H157.861C158.277 62.072 159.157 63.176 160.501 64.008C161.877 64.872 163.509 65.304 165.397 65.304C167.605 65.304 169.381 64.632 170.725 63.288C172.101 61.944 172.789 59.992 172.789 57.432V53.016C171.861 54.264 170.597 55.32 168.997 56.184C167.429 57.016 165.637 57.432 163.621 57.432C161.317 57.432 159.205 56.856 157.285 55.704C155.397 54.52 153.893 52.888 152.773 50.808C151.685 48.696 151.141 46.312 151.141 43.656C151.141 41 151.685 38.648 152.773 36.6C153.893 34.552 155.397 32.968 157.285 31.848C159.205 30.696 161.317 30.12 163.621 30.12ZM172.789 43.752C172.789 41.928 172.405 40.344 171.637 39C170.901 37.656 169.925 36.632 168.709 35.928C167.493 35.224 166.181 34.872 164.773 34.872C163.365 34.872 162.053 35.224 160.837 35.928C159.621 36.6 158.629 37.608 157.861 38.952C157.125 40.264 156.757 41.832 156.757 43.656C156.757 45.48 157.125 47.08 157.861 48.456C158.629 49.832 159.621 50.888 160.837 51.624C162.085 52.328 163.397 52.68 164.773 52.68C166.181 52.68 167.493 52.328 168.709 51.624C169.925 50.92 170.901 49.896 171.637 48.552C172.405 47.176 172.789 45.576 172.789 43.752ZM197.4 30.12C199.48 30.12 201.336 30.552 202.968 31.416C204.632 32.28 205.928 33.56 206.856 35.256C207.784 36.952 208.248 39 208.248 41.4V57H202.824V42.216C202.824 39.848 202.232 38.04 201.048 36.792C199.864 35.512 198.248 34.872 196.2 34.872C194.152 34.872 192.52 35.512 191.304 36.792C190.12 38.04 189.528 39.848 189.528 42.216V57H184.056V30.552H189.528V33.576C190.424 32.488 191.56 31.64 192.936 31.032C194.344 30.424 195.832 30.12 197.4 30.12ZM216.572 27.048C215.58 27.048 214.748 26.712 214.076 26.04C213.404 25.368 213.068 24.536 213.068 23.544C213.068 22.552 213.404 21.72 214.076 21.048C214.748 20.376 215.58 20.04 216.572 20.04C217.532 20.04 218.348 20.376 219.02 21.048C219.692 21.72 220.028 22.552 220.028 23.544C220.028 24.536 219.692 25.368 219.02 26.04C218.348 26.712 217.532 27.048 216.572 27.048ZM219.26 30.552V57H213.788V30.552H219.26ZM223.18 43.656C223.18 41 223.724 38.648 224.812 36.6C225.932 34.552 227.436 32.968 229.324 31.848C231.244 30.696 233.356 30.12 235.66 30.12C237.74 30.12 239.548 30.536 241.084 31.368C242.652 32.168 243.9 33.176 244.828 34.392V30.552H250.348V57H244.828V53.064C243.9 54.312 242.636 55.352 241.036 56.184C239.436 57.016 237.612 57.432 235.564 57.432C233.292 57.432 231.212 56.856 229.324 55.704C227.436 54.52 225.932 52.888 224.812 50.808C223.724 48.696 223.18 46.312 223.18 43.656ZM244.828 43.752C244.828 41.928 244.444 40.344 243.676 39C242.94 37.656 241.964 36.632 240.748 35.928C239.532 35.224 238.22 34.872 236.812 34.872C235.404 34.872 234.092 35.224 232.876 35.928C231.66 36.6 230.668 37.608 229.9 38.952C229.164 40.264 228.796 41.832 228.796 43.656C228.796 45.48 229.164 47.08 229.9 48.456C230.668 49.832 231.66 50.888 232.876 51.624C234.124 52.328 235.436 52.68 236.812 52.68C238.22 52.68 239.532 52.328 240.748 51.624C241.964 50.92 242.94 49.896 243.676 48.552C244.444 47.176 244.828 45.576 244.828 43.752Z" fill="#1F1F1F"/>
</svg>
